<?xml version="1.0" encoding="utf-8"?>
<!-- Generator: Adobe Illustrator 16.0.0, SVG Export Plug-In . SVG Version: 6.00 Build 0)  -->
<!DOCTYPE svg PUBLIC "-//W3C//DTD SVG 1.1//EN" "http://www.w3.org/Graphics/SVG/1.1/DTD/svg11.dtd">
<svg version="1.1" id="Livello_1" xmlns="http://www.w3.org/2000/svg" xmlns:xlink="http://www.w3.org/1999/xlink" x="0px" y="0px"
	 width="50px" height="50px" viewBox="0 0 50 50" enable-background="new 0 0 50 50" xml:space="preserve">
<g>
	<g>
		<path fill="#AD7A4D" d="M18.774,22.459c2.794,1.864,4.192,4.468,4.192,7.813c0,3.348-0.997,5.996-2.986,7.942
			c-1.991,1.951-4.491,2.923-7.496,2.923c-3.01,0-5.509-0.931-7.498-2.795C2.994,36.48,2,34.066,2,31.1
			c0-2.965,0.93-5.887,2.796-8.77l9.276-13.469h10.419L18.774,22.459z M42.282,22.459c2.794,1.864,4.192,4.468,4.192,7.813
			c0,3.348-0.996,5.996-2.986,7.942c-1.99,1.951-4.491,2.923-7.496,2.923c-3.009,0-5.508-0.931-7.499-2.795
			c-1.991-1.863-2.984-4.276-2.984-7.243c0-2.965,0.93-5.887,2.795-8.77L37.58,8.862H48L42.282,22.459z"/>
	</g>
</g>
</svg>
