<?xml version="1.0" encoding="utf-8"?>
<!-- Generator: Adobe Illustrator 18.1.0, SVG Export Plug-In . SVG Version: 6.00 Build 0)  -->
<svg version="1.1" id="Livello_1" xmlns="http://www.w3.org/2000/svg" xmlns:xlink="http://www.w3.org/1999/xlink" x="0px" y="0px"
	 viewBox="0 0 196.3 35.1" enable-background="new 0 0 196.3 35.1" xml:space="preserve">
<path fill="#FFFFFF" d="M41.2,33.8l0.4-0.5c0.6,0.5,1.2,0.8,2,0.8c0.8,0,1.3-0.4,1.3-1v0c0-0.5-0.3-0.8-1.5-1.1
	c-1.3-0.3-1.9-0.7-1.9-1.6v0c0-0.9,0.8-1.6,1.9-1.6c0.8,0,1.4,0.2,2,0.7L44.9,30c-0.5-0.4-1.1-0.6-1.6-0.6c-0.7,0-1.2,0.4-1.2,0.9v0
	c0,0.5,0.3,0.8,1.5,1.1c1.3,0.3,1.9,0.7,1.9,1.6v0c0,1-0.8,1.6-2,1.6C42.6,34.7,41.8,34.4,41.2,33.8"/>
<path fill="#FFFFFF" d="M53.6,28.8h0.6l2.6,5.8h-0.7l-0.7-1.5h-3.1l-0.7,1.5H51L53.6,28.8z M55.2,32.5l-1.3-2.9l-1.3,2.9H55.2z"/>
<path fill="#FFFFFF" d="M62.8,28.9h2.1c1.3,0,2.1,0.7,2.1,1.8v0c0,1.2-1,1.9-2.2,1.9h-1.4v2h-0.6V28.9z M64.8,32
	c0.9,0,1.6-0.5,1.6-1.3v0c0-0.8-0.6-1.2-1.5-1.2h-1.4V32H64.8z"/>
<polygon fill="#FFFFFF" points="73.1,28.9 77.2,28.9 77.2,29.5 73.7,29.5 73.7,31.4 76.8,31.4 76.8,32 73.7,32 73.7,34 77.3,34 
	77.3,34.6 73.1,34.6 "/>
<path fill="#FFFFFF" d="M83.4,28.9h2.5c0.7,0,1.3,0.2,1.6,0.6c0.3,0.3,0.4,0.7,0.4,1.1v0c0,0.9-0.7,1.5-1.6,1.7l1.8,2.3h-0.8
	l-1.7-2.2H84v2.2h-0.6V28.9z M85.8,31.8c0.9,0,1.5-0.4,1.5-1.2v0c0-0.7-0.5-1.1-1.5-1.1H84v2.3H85.8z"/>
<polygon fill="#FFFFFF" points="94.1,28.9 98.3,28.9 98.3,29.5 94.8,29.5 94.8,31.4 97.9,31.4 97.9,32 94.8,32 94.8,34 98.3,34 
	98.3,34.6 94.1,34.6 "/>
<path fill="#FFFFFF" d="M111.2,28.9h2c1.8,0,3,1.2,3,2.8v0c0,1.6-1.2,2.9-3,2.9h-2V28.9z M111.9,29.5V34h1.3c1.4,0,2.4-1,2.4-2.2v0
	c0-1.3-0.9-2.3-2.4-2.3H111.9z"/>
<rect x="123.1" y="28.9" fill="#FFFFFF" width="0.6" height="5.7"/>
<path fill="#FFFFFF" d="M137.1,33.8l0.4-0.5c0.6,0.5,1.2,0.8,2,0.8c0.8,0,1.3-0.4,1.3-1v0c0-0.5-0.3-0.8-1.5-1.1
	c-1.3-0.3-1.9-0.7-1.9-1.6v0c0-0.9,0.8-1.6,1.9-1.6c0.8,0,1.4,0.2,2,0.7l-0.4,0.5c-0.5-0.4-1.1-0.6-1.6-0.6c-0.7,0-1.2,0.4-1.2,0.9
	v0c0,0.5,0.3,0.8,1.5,1.1c1.3,0.3,1.9,0.7,1.9,1.6v0c0,1-0.8,1.6-2,1.6C138.6,34.7,137.8,34.4,137.1,33.8"/>
<path fill="#FFFFFF" d="M149.9,28.8h0.6l2.6,5.8h-0.7l-0.7-1.5h-3.1l-0.7,1.5h-0.7L149.9,28.8z M151.5,32.5l-1.3-2.9l-1.3,2.9H151.5
	z"/>
<path fill="#FFFFFF" d="M159.1,28.9h2.1c1.3,0,2.1,0.7,2.1,1.8v0c0,1.2-1,1.9-2.2,1.9h-1.4v2h-0.6V28.9z M161.1,32
	c0.9,0,1.6-0.5,1.6-1.3v0c0-0.8-0.6-1.2-1.5-1.2h-1.4V32H161.1z"/>
<path fill="#FFFFFF" d="M169.1,31.7L169.1,31.7c0-1.6,1.2-3,2.9-3c1.7,0,2.9,1.4,2.9,2.9v0c0,1.6-1.2,3-2.9,3
	C170.3,34.7,169.1,33.3,169.1,31.7 M174.3,31.7L174.3,31.7c0-1.3-0.9-2.4-2.3-2.4c-1.3,0-2.2,1-2.2,2.3v0c0,1.3,0.9,2.4,2.3,2.4
	C173.3,34.1,174.3,33,174.3,31.7"/>
<path fill="#FFFFFF" d="M181.4,28.9h2.5c0.7,0,1.3,0.2,1.6,0.6c0.3,0.3,0.4,0.7,0.4,1.1v0c0,0.9-0.7,1.5-1.5,1.7l1.8,2.3h-0.8
	l-1.7-2.2h-1.6v2.2h-0.6V28.9z M183.8,31.8c0.9,0,1.5-0.4,1.5-1.2v0c0-0.7-0.5-1.1-1.5-1.1h-1.8v2.3H183.8z"/>
<rect x="192.6" y="28.9" fill="#FFFFFF" width="0.6" height="5.7"/>
<path fill="#FFFFFF" d="M154.2,12.6c0.3-0.2,0.6-0.4,0.8-0.6c0.2-0.2,0.4-0.5,0.6-0.8c0.1-0.1,0.1-0.2,0.2-0.4
	c0.1-0.2,0.1-0.4,0.1-0.5c0-0.2,0-0.3,0-0.5c0-0.1-0.2-0.2-0.4-0.2c-0.4,0-0.8,0.1-1.1,0.3c-0.4,0.2-0.7,0.5-1,0.9
	c-0.3,0.4-0.6,0.7-0.9,1.1c-0.3,0.4-0.5,0.7-0.6,1c-0.5,0.8-1,1.7-1.3,2.6c-0.4,0.9-0.6,1.8-0.7,2.8c0,0.3,0,0.7,0,1
	c0,0.4,0.1,0.7,0.3,1c0.1,0.3,0.3,0.5,0.6,0.7c0.2,0.2,0.5,0.3,0.9,0.3c0.4,0,0.9-0.1,1.3-0.3c0.4-0.2,0.8-0.4,1.2-0.7
	c0.4-0.3,0.7-0.6,1-0.9c0.3-0.3,0.6-0.6,0.9-1c0.4-0.5,0.8-1,1.2-1.5c0.4-0.5,0.7-1.1,1.1-1.6c0.1-0.1,0.2-0.3,0.4-0.6
	c0.1-0.3,0.3-0.5,0.5-0.7c0.2-0.2,0.4-0.3,0.6-0.4c0.2-0.1,0.4,0,0.7,0.3c0.2,0.2,0.2,0.4,0.2,0.7c0,0.3-0.1,0.5-0.3,0.8
	c-0.1,0.3-0.3,0.5-0.5,0.7c-0.2,0.2-0.3,0.4-0.4,0.6c-0.4,0.6-0.8,1.1-1.3,1.7c-0.5,0.5-0.9,1.1-1.4,1.5c-0.3,0.3-0.7,0.7-1,1
	c-0.4,0.3-0.7,0.6-1.2,0.9c-0.4,0.3-0.8,0.5-1.3,0.7c-0.4,0.2-0.9,0.3-1.4,0.4c-0.6,0.1-1.2,0-1.8-0.2c-0.6-0.2-1.1-0.5-1.6-0.9
	c-0.5-0.4-0.9-0.8-1.2-1.4c-0.4-0.5-0.6-1.1-0.8-1.6c-0.4-1.1-0.5-2.2-0.3-3.2c0.2-1.1,0.5-2.1,0.9-3.2c0.3-0.9,0.8-1.7,1.4-2.5
	c0.6-0.7,1.2-1.4,2-2c0.5-0.3,1-0.6,1.7-0.8c0.7-0.2,1.3-0.3,2-0.2c0.7,0,1.3,0.2,1.9,0.4c0.6,0.3,1.1,0.6,1.4,1.2
	c0.4,0.7,0.6,1.4,0.7,2.1c0,0.7,0,1.5-0.3,2.2c-0.1,0.3-0.2,0.6-0.3,0.9c-0.1,0.3-0.3,0.7-0.5,1c-0.2,0.3-0.4,0.6-0.6,0.9
	c-0.2,0.3-0.5,0.5-0.7,0.6c-0.3,0.2-0.6,0.3-1,0.3c-0.3,0-0.6-0.1-0.9-0.2c-0.3-0.1-0.5-0.3-0.7-0.6c-0.2-0.3-0.3-0.6-0.4-0.9
	c-0.1-0.6,0-1.1,0.4-1.5C153.3,13.2,153.7,12.9,154.2,12.6"/>
<path fill="#FFFFFF" d="M162.8,15.2c-0.3,0.5-0.5,1.1-0.7,1.6c-0.2,0.5-0.5,1.1-0.7,1.6c-0.1,0.2-0.2,0.4-0.3,0.7
	c-0.1,0.3-0.3,0.6-0.4,0.8c-0.1,0.3-0.2,0.6-0.2,0.8c0,0.3,0,0.4,0.1,0.5c0.2,0.2,0.5,0.1,0.9-0.2c0.4-0.3,0.9-0.7,1.3-1.2
	c0.5-0.5,0.9-0.9,1.3-1.4c0.4-0.5,0.6-0.7,0.7-0.9c0.3-0.4,0.7-0.9,1-1.3c0.3-0.4,0.6-0.9,0.9-1.3c0.1-0.1,0.2-0.3,0.3-0.5
	c0.1-0.2,0.3-0.4,0.4-0.5c0.2-0.1,0.3-0.2,0.5-0.3c0.2,0,0.4,0.1,0.6,0.3c0.3,0.3,0.3,0.6,0.1,1c-0.2,0.3-0.4,0.6-0.5,0.9
	c-0.7,1.1-1.5,2.1-2.3,3c-0.8,0.9-1.6,1.7-2.5,2.5c-0.4,0.3-0.8,0.7-1.2,1c-0.4,0.3-0.9,0.5-1.5,0.6c-0.4,0-0.8,0-1.1-0.1
	c-0.3-0.1-0.6-0.3-0.8-0.6c-0.2-0.3-0.4-0.5-0.6-0.9c-0.2-0.3-0.3-0.7-0.4-1c-0.2-0.5-0.2-1.1-0.2-1.7c0-0.6,0.2-1.2,0.3-1.8
	s0.3-1.2,0.6-1.7c0.2-0.6,0.4-1.1,0.6-1.6c0.4-1,0.7-1.8,1-2.4c0.3-0.6,0.5-1.1,0.6-1.5c0.2-0.4,0.3-0.6,0.4-0.8
	c0.1-0.2,0.2-0.3,0.4-0.5c0.4-0.4,0.9-0.5,1.3-0.5c0.5,0,0.9,0.2,1.3,0.5c0.4,0.3,0.6,0.6,0.8,1.1c0.2,0.5,0.1,0.9-0.1,1.4
	L162.8,15.2z M163.4,3.5c0-0.7,0.2-1.2,0.7-1.7c0.5-0.5,1-0.7,1.6-0.7c0.7,0,1.2,0.2,1.7,0.7c0.5,0.5,0.7,1,0.7,1.7
	c0,0.6-0.2,1.2-0.7,1.6c-0.5,0.5-1,0.7-1.7,0.7c-0.6,0-1.2-0.2-1.6-0.7C163.6,4.7,163.4,4.2,163.4,3.5"/>
<path fill="#FFFFFF" d="M176.8,3.6c-0.4,0.5-0.8,1-1.1,1.6c-0.3,0.6-1,1.8-1,1.8c-0.5,0.9-0.9,1.7-1.3,2.6c-0.4,0.9-0.8,1.8-1.2,2.7
	c-0.1,0.1-0.2,0.5-0.4,1c-0.2,0.5-0.4,1.1-0.6,1.8c-0.2,0.7-0.4,1.4-0.6,2.1c-0.2,0.7-0.4,1.4-0.5,2.1c-0.1,0.6-0.1,1.1-0.1,1.5
	c0,0.4,0.2,0.6,0.5,0.6c0.4,0,0.8-0.2,1.1-0.5c0.3-0.3,0.6-0.6,0.9-0.9c0.4-0.6,0.8-1.1,1.1-1.7c0.3-0.6,0.7-1.2,1-1.8
	c0.3-0.6,0.6-1.2,0.9-1.9c0.3-0.7,0.7-1.6,1.1-2.6c-0.6-2.8-3.5-2.1-3.7-2.5c-0.3-0.4-0.4-0.8-0.3-1.3c0-0.5,0.2-0.9,0.5-1.1
	c0.3-0.2,0.6-0.8,1-0.8c0.4,0,0.8,0.2,1.5,0.4c1,0.3,2.7,0.9,3.7,2.5c0.4,0.5,0.6,1.2,0.8,1.8c0.8,0,1.6-0.2,2.4-0.3
	c0.8-0.2,1.5-0.4,2-0.6c0.1-0.1,0.3-0.2,0.5-0.3s0.4-0.2,0.6-0.3s0.4-0.1,0.5,0c0.2,0.1,0.3,0.2,0.4,0.5c0.1,0.3,0.1,0.5-0.1,0.8
	c-0.2,0.2-0.4,0.4-0.7,0.6c-0.3,0.2-0.6,0.3-0.9,0.4c-0.3,0.1-0.6,0.2-0.8,0.3c-0.5,0.2-1.1,0.3-1.7,0.5c-0.7,0.1-1.4,0.3-2.1,0.3
	v0.5c0,0.7-0.2,1.4-0.4,2c-0.2,0.6-0.5,1.2-0.9,1.8c-0.4,0.6-0.8,1.1-1.2,1.6c-0.5,0.5-3.4,4.3-6.7,4.7c-0.2,0-1.5,0.1-3.3-1.8
	c-0.5-0.5-0.8-1-1-1.5c-0.2-0.5-0.3-1.1-0.3-1.8c-0.1-1.3,0.1-2.5,0.5-3.7c0.4-1.2,0.8-2.4,1.3-3.5c0.4-1,0.8-2,1.2-2.9
	c0.4-1,0.8-1.9,1.3-2.8c0.2-0.4,0.4-0.8,0.6-1.2c0.2-0.4,0.5-0.8,0.8-1.3c0.3-0.4,0.6-0.8,0.9-1.2c0.3-0.4,0.7-0.7,1-0.9
	c0.5-0.3,1-0.4,1.5-0.3c0.5,0.1,0.9,0.4,1.2,0.8c0.3,0.4,0.5,0.8,0.5,1.4C177.4,2.7,177.2,3.2,176.8,3.6"/>
<path fill="#FFFFFF" d="M194.5,18.1c-0.4,0.7-1,1.3-1.6,2c-0.6,0.7-1.3,1.2-2,1.7c-0.7,0.5-1.5,0.8-2.4,1c-0.8,0.2-1.7,0.2-2.6-0.1
	c-1-0.3-1.9-0.9-2.5-1.7c-0.6-0.9-1.1-1.8-1.4-2.8c-0.2-0.9-0.3-1.8-0.1-2.7c0.1-0.9,0.4-1.8,0.7-2.6c0.4-0.9,0.9-1.8,1.6-2.6
	c0.7-0.8,1.5-1.5,2.3-2c0.9-0.5,2-0.8,3.2-0.9c1.2-0.1,2.3,0.1,3.3,0.5c1,0.4,1.8,1,2.5,1.8c0.6,0.8,0.9,1.9,0.8,3.3
	c0,0.9-0.2,1.8-0.5,2.6C195.4,16.6,195,17.3,194.5,18.1 M191.5,16.6c0.3-0.7,0.6-1.4,0.9-2.1c0.3-0.7,0.5-1.4,0.7-2.2
	c0.2-0.8,0.3-1.4,0.2-1.9c-0.1-0.4-0.2-0.7-0.5-0.9c-0.2-0.1-0.5-0.1-0.9,0c-0.4,0.1-0.8,0.3-1.1,0.5c-0.4,0.3-0.8,0.6-1.1,0.9
	s-0.7,0.7-1,1.1c-0.7,0.9-1.3,1.9-1.9,3c-0.5,1.1-0.9,2.2-1.1,3.4c0,0.2-0.1,0.4-0.1,0.7c0,0.3,0,0.5,0,0.8c0,0.3,0.1,0.5,0.2,0.7
	c0.1,0.2,0.3,0.4,0.5,0.5c0.3,0.1,0.5,0.1,0.8,0.1c0.3-0.1,0.5-0.2,0.8-0.3c0.4-0.2,0.8-0.5,1.2-0.8c0.4-0.3,0.7-0.7,1-1.1
	c0.3-0.4,0.6-0.8,0.8-1.2C191,17.4,191.3,17,191.5,16.6"/>
<rect x="41.7" y="7.5" fill="#FFFFFF" width="2.6" height="15.6"/>
<polygon fill="#FFFFFF" points="48.2,7.5 50.6,7.5 58.4,18.3 58.4,7.5 60.9,7.5 60.9,23.1 58.8,23.1 50.7,12 50.7,23.1 48.2,23.1 
	"/>
<polygon fill="#FFFFFF" points="64.7,7.5 75.6,7.5 75.6,10 67.3,10 67.3,14.2 74.7,14.2 74.7,16.7 67.3,16.7 67.3,23.1 64.7,23.1 
	"/>
<path fill="#FFFFFF" d="M77.7,15.3L77.7,15.3c0-4.4,3.2-8.1,7.7-8.1c4.5,0,7.6,3.6,7.6,8v0c0,4.4-3.2,8.1-7.7,8.1
	C80.8,23.4,77.7,19.7,77.7,15.3 M90.3,15.3L90.3,15.3c0-3.1-2.1-5.6-5-5.6s-4.9,2.5-4.9,5.5v0c0,3,2.1,5.5,5,5.5
	S90.3,18.4,90.3,15.3"/>
<path fill="#FFFFFF" d="M96.1,7.5h6.5c1.8,0,3.3,0.6,4.2,1.6c0.8,0.8,1.2,2,1.2,3.4v0c0,2.6-1.4,4.1-3.5,4.7l4,5.9h-3.1l-3.6-5.4
	h-3.2v5.4h-2.6V7.5z M102.5,15.2c1.8,0,3-1,3-2.6v0c0-1.7-1.1-2.6-3-2.6h-3.8v5.2H102.5z"/>
<polygon fill="#FFFFFF" points="111.3,7.5 114,7.5 118.5,14.9 123,7.5 125.7,7.5 125.7,23.1 123.1,23.1 123.1,11.9 118.5,19.3 
	118.4,19.3 113.8,11.9 113.8,23.1 111.3,23.1 "/>
<path fill="#FFFFFF" d="M134.7,7.4h2.4l6.5,15.7h-2.7l-1.5-3.8h-6.9l-1.5,3.8h-2.6L134.7,7.4z M138.4,16.9l-2.5-6.3l-2.5,6.3H138.4z
	"/>
<path fill="#FFFFFF" d="M17.5,0C7.8,0,0,7.8,0,17.5s7.8,17.5,17.5,17.5c9.7,0,17.5-7.8,17.5-17.5S27.2,0,17.5,0 M27.4,10.3
	c0.3,0.3,0.3,0.8,0,1.1l-7,7c-0.2,0.1-0.3,0.2-0.5,0.2c-0.2,0-0.4-0.1-0.5-0.2c-0.3-0.3-0.3-0.8,0-1.1l7-7
	C26.6,10,27.1,10,27.4,10.3 M24.8,7.7c0.3,0.3,0.3,0.8,0,1.1l-7,7c-0.1,0.1-0.3,0.2-0.5,0.2s-0.4-0.1-0.5-0.2
	c-0.3-0.3-0.3-0.8,0-1.1l7-7C24,7.4,24.5,7.4,24.8,7.7 M23.1,20.8L7.3,27.7L14.3,12l6.8-6.8c0.3-0.3,0.8-0.3,1.1,0
	c0.3,0.3,0.3,0.8,0,1.1l-6.6,6.6l-4.1,9.3l1.4,1.4l9.3-4.1l6.6-6.6c0.3-0.3,0.8-0.3,1.1,0c0.3,0.3,0.3,0.8,0,1.1L23.1,20.8z"/>
</svg>
