<?xml version="1.0" encoding="utf-8"?>
<!-- Generator: Adobe Illustrator 18.1.0, SVG Export Plug-In . SVG Version: 6.00 Build 0)  -->
<svg version="1.1" id="Livello_1" xmlns="http://www.w3.org/2000/svg" xmlns:xlink="http://www.w3.org/1999/xlink" x="0px" y="0px"
	 viewBox="0 0 638.1 114" xml:space="preserve">
<g>
	<path fill="#231F20" d="M133.8,109.7l1.3-1.5c1.9,1.8,3.8,2.6,6.4,2.6c2.5,0,4.1-1.3,4.1-3.2v-0.1c0-1.7-0.9-2.7-4.8-3.5
		c-4.3-0.9-6.2-2.3-6.2-5.4v-0.1c0-2.9,2.6-5.1,6.1-5.1c2.7,0,4.6,0.8,6.5,2.3l-1.2,1.6c-1.7-1.4-3.4-2-5.4-2c-2.4,0-4,1.3-4,3v0.1
		c0,1.7,1,2.7,5,3.6c4.1,0.9,6,2.4,6,5.3v0.1c0,3.2-2.7,5.3-6.3,5.3C138.4,112.7,136,111.7,133.8,109.7"/>
	<path fill="#231F20" d="M174.2,93.7h2l8.5,18.7h-2.3l-2.2-4.9h-10.1l-2.2,4.9h-2.1L174.2,93.7z M179.4,105.6l-4.2-9.4l-4.2,9.4
		H179.4z"/>
	<path fill="#231F20" d="M204.1,93.9h6.9c4.2,0,6.9,2.2,6.9,5.9v0.1c0,4-3.3,6.1-7.3,6.1h-4.5v6.6h-2.1V93.9z M210.8,104
		c3.1,0,5.1-1.6,5.1-4.1v-0.1c0-2.7-2-4-5-4h-4.7v8.2H210.8z"/>
	<polygon fill="#231F20" points="237.5,93.9 251,93.9 251,95.8 239.6,95.8 239.6,102.1 249.8,102.1 249.8,104 239.6,104 
		239.6,110.5 251.1,110.5 251.1,112.4 237.5,112.4 	"/>
	<path fill="#231F20" d="M271.1,93.9h8c2.3,0,4.1,0.7,5.3,1.9c0.9,0.9,1.4,2.2,1.4,3.7v0.1c0,3.1-2.1,4.9-5,5.4l5.7,7.6h-2.6
		l-5.4-7.2h-5.3v7.2h-2.1V93.9z M278.9,103.3c2.8,0,4.8-1.4,4.8-3.8v-0.1c0-2.3-1.8-3.7-4.7-3.7h-5.7v7.5H278.9z"/>
	<polygon fill="#231F20" points="306,93.9 319.4,93.9 319.4,95.8 308.1,95.8 308.1,102.1 318.2,102.1 318.2,104 308.1,104 
		308.1,110.5 319.6,110.5 319.6,112.4 306,112.4 	"/>
	<path fill="#231F20" d="M361.6,93.9h6.4c5.8,0,9.9,4,9.9,9.2v0.1c0,5.2-4,9.3-9.9,9.3h-6.4V93.9z M363.7,95.8v14.7h4.3
		c4.7,0,7.7-3.2,7.7-7.3v-0.1c0-4.1-3-7.3-7.7-7.3H363.7z"/>
	<rect x="400.3" y="93.9" fill="#231F20" width="2.1" height="18.6"/>
	<path fill="#231F20" d="M445.7,109.7l1.3-1.5c1.9,1.8,3.8,2.6,6.4,2.6c2.5,0,4.1-1.3,4.1-3.2v-0.1c0-1.7-0.9-2.7-4.8-3.5
		c-4.3-0.9-6.2-2.3-6.2-5.4v-0.1c0-2.9,2.6-5.1,6.1-5.1c2.7,0,4.6,0.8,6.5,2.3l-1.2,1.6c-1.7-1.4-3.4-2-5.4-2c-2.4,0-4,1.3-4,3v0.1
		c0,1.7,1,2.7,5,3.6c4.1,0.9,6,2.4,6,5.3v0.1c0,3.2-2.7,5.3-6.3,5.3C450.4,112.7,448,111.7,445.7,109.7"/>
	<path fill="#231F20" d="M487.1,93.7h2l8.5,18.7h-2.3l-2.2-4.9H483l-2.2,4.9h-2.1L487.1,93.7z M492.3,105.6l-4.2-9.4l-4.2,9.4H492.3
		z"/>
	<path fill="#231F20" d="M517,93.9h6.9c4.2,0,6.9,2.2,6.9,5.9v0.1c0,4-3.3,6.1-7.3,6.1h-4.5v6.6H517V93.9z M523.7,104
		c3.1,0,5.1-1.6,5.1-4.1v-0.1c0-2.7-2-4-5-4h-4.7v8.2H523.7z"/>
	<path fill="#231F20" d="M549.6,103.2L549.6,103.2c0-5.2,3.8-9.7,9.5-9.7s9.4,4.4,9.4,9.5v0.1c0,5.1-3.8,9.6-9.5,9.6
		C553.4,112.7,549.6,108.3,549.6,103.2 M566.4,103.2L566.4,103.2c0-4.3-3.1-7.7-7.3-7.7c-4.2,0-7.3,3.4-7.3,7.6v0.1
		c0,4.2,3.1,7.7,7.3,7.7C563.4,110.8,566.4,107.4,566.4,103.2"/>
	<path fill="#231F20" d="M589.8,93.9h8c2.3,0,4.1,0.7,5.3,1.9c0.9,0.9,1.4,2.2,1.4,3.7v0.1c0,3.1-2.1,4.9-5,5.4l5.7,7.6h-2.6
		l-5.4-7.2h-5.3v7.2h-2.1V93.9z M597.6,103.3c2.8,0,4.8-1.4,4.8-3.8v-0.1c0-2.3-1.8-3.7-4.7-3.7h-5.7v7.5H597.6z"/>
	<rect x="625.9" y="93.9" fill="#231F20" width="2.1" height="18.6"/>
	<path fill="#A87B53" d="M501.3,40.9c0.9-0.5,1.8-1.2,2.6-1.9c0.8-0.7,1.5-1.6,2-2.6c0.2-0.3,0.5-0.8,0.7-1.4
		c0.2-0.6,0.4-1.2,0.5-1.8c0.1-0.6,0-1.1-0.1-1.5c-0.2-0.4-0.6-0.7-1.3-0.8c-1.3-0.1-2.5,0.3-3.7,1.1c-1.2,0.8-2.4,1.8-3.4,2.9
		c-1.1,1.2-2,2.4-2.8,3.7c-0.8,1.3-1.5,2.4-2.1,3.2c-1.6,2.7-3.1,5.4-4.4,8.3c-1.3,2.9-2,5.9-2.2,9.1c-0.1,1,0,2.1,0.1,3.3
		c0.2,1.2,0.5,2.3,0.9,3.2c0.5,1,1.1,1.8,1.9,2.4c0.8,0.6,1.8,0.9,2.9,0.9c1.4,0,2.8-0.3,4.1-0.8c1.3-0.5,2.6-1.3,3.8-2.2
		c1.2-0.9,2.3-1.9,3.3-2.9s2-2.1,2.8-3.1c1.3-1.6,2.6-3.2,3.9-4.9c1.3-1.7,2.4-3.5,3.5-5.3c0.3-0.5,0.7-1.1,1.2-2
		c0.5-0.9,1-1.6,1.6-2.3c0.6-0.7,1.2-1.1,1.9-1.3c0.7-0.2,1.4,0.1,2.2,1c0.5,0.6,0.7,1.4,0.6,2.2c-0.2,0.8-0.5,1.6-0.9,2.5
		c-0.5,0.8-1,1.6-1.6,2.4c-0.6,0.8-1,1.4-1.4,1.9c-1.3,1.9-2.7,3.7-4.2,5.5c-1.5,1.8-3.1,3.4-4.7,5c-1.1,1.1-2.2,2.2-3.4,3.2
		c-1.2,1.1-2.4,2.1-3.8,3c-1.3,0.9-2.7,1.7-4.2,2.4c-1.5,0.7-3,1.1-4.5,1.4c-2,0.2-4,0-5.9-0.6c-1.9-0.6-3.6-1.6-5.1-2.8
		c-1.5-1.3-2.9-2.7-4.1-4.4c-1.2-1.7-2.1-3.4-2.7-5.2c-1.3-3.5-1.6-7-1.1-10.5c0.5-3.5,1.5-6.9,2.8-10.3c1.1-3,2.6-5.6,4.4-8
		c1.8-2.4,4-4.5,6.5-6.5c1.5-1.1,3.3-1.9,5.4-2.5c2.1-0.6,4.3-0.8,6.4-0.8c2.2,0.1,4.2,0.5,6.1,1.4c1.9,0.8,3.4,2.1,4.5,3.8
		c1.3,2.1,2.1,4.4,2.2,6.8c0.2,2.4-0.1,4.8-0.8,7.2c-0.2,0.9-0.6,1.9-1,3c-0.4,1.1-0.9,2.3-1.5,3.4c-0.5,1.1-1.2,2.1-1.9,3
		c-0.7,0.9-1.5,1.6-2.4,2.1c-1,0.5-2.1,0.8-3.1,0.8c-1.1,0-2.1-0.2-3-0.7c-0.9-0.5-1.7-1.1-2.4-2c-0.6-0.9-1-1.9-1.2-3.1
		c-0.3-2,0.2-3.6,1.4-4.8C498.3,42.8,499.7,41.8,501.3,40.9"/>
	<path fill="#A87B53" d="M529.1,49.3c-0.9,1.7-1.7,3.4-2.4,5.1c-0.7,1.7-1.5,3.4-2.2,5.2c-0.2,0.6-0.6,1.4-1,2.3
		c-0.4,0.9-0.8,1.8-1.2,2.8c-0.4,0.9-0.6,1.8-0.8,2.6c-0.2,0.8,0,1.4,0.4,1.7c0.6,0.5,1.6,0.3,3.1-0.7c1.4-1,2.9-2.3,4.4-3.8
		c1.5-1.5,2.9-3,4.1-4.5c1.3-1.5,2-2.4,2.4-2.8c1.1-1.4,2.1-2.8,3.1-4.2c1-1.4,1.9-2.9,2.9-4.4c0.3-0.5,0.7-1,1.1-1.7
		c0.4-0.7,0.9-1.2,1.4-1.7c0.5-0.5,1.1-0.7,1.7-0.8c0.6-0.1,1.2,0.3,1.9,1.1c0.9,1,1,2.1,0.4,3.2c-0.6,1.1-1.2,2.1-1.8,2.9
		c-2.4,3.6-4.9,6.9-7.5,9.8c-2.6,2.9-5.3,5.6-8,8.1c-1.2,1.1-2.5,2.2-3.9,3.3c-1.5,1.1-3,1.7-4.8,1.9c-1.3,0.2-2.5,0-3.5-0.5
		c-1-0.5-1.9-1.1-2.7-1.9c-0.8-0.8-1.4-1.8-2-2.8c-0.5-1.1-1-2.1-1.3-3.2c-0.5-1.6-0.7-3.4-0.6-5.4c0.2-2,0.5-3.9,1-5.8
		c0.5-1.9,1.1-3.8,1.9-5.6c0.7-1.8,1.4-3.5,2.1-5.1c1.3-3.1,2.3-5.7,3.1-7.7s1.5-3.6,2.1-4.8c0.5-1.2,1-2.1,1.4-2.6
		c0.4-0.6,0.8-1.1,1.2-1.5c1.3-1.2,2.8-1.7,4.4-1.6c1.6,0.1,3,0.6,4.2,1.5c1.2,0.9,2.1,2.1,2.6,3.6c0.5,1.5,0.4,3.1-0.4,4.7
		L529.1,49.3z M531,11.5c0-2.1,0.8-3.9,2.3-5.5c1.5-1.5,3.3-2.3,5.4-2.3c2.1,0,3.9,0.8,5.5,2.3c1.5,1.5,2.3,3.4,2.3,5.5
		c0,2-0.8,3.8-2.3,5.4c-1.5,1.5-3.4,2.3-5.5,2.3c-2,0-3.8-0.8-5.4-2.3C531.8,15.4,531,13.6,531,11.5"/>
	<path fill="#A87B53" d="M574.7,11.8c-1.3,1.6-2.5,3.3-3.6,5.2c-1.1,1.9-3.1,5.7-3.1,5.7c-1.5,2.8-2.9,5.7-4.2,8.5
		c-1.3,2.9-2.6,5.7-3.8,8.6c-0.2,0.5-0.6,1.5-1.2,3.1c-0.6,1.6-1.2,3.5-1.9,5.7c-0.7,2.2-1.4,4.5-2.1,6.9c-0.7,2.4-1.2,4.7-1.5,6.7
		c-0.4,2-0.5,3.7-0.3,5c0.2,1.3,0.7,1.9,1.5,1.9c1.3-0.1,2.5-0.6,3.6-1.7c1.1-1.1,2-2.1,2.8-3c1.3-1.8,2.6-3.6,3.7-5.5
		c1.1-1.9,2.2-3.8,3.2-5.8c1-1.9,2-3.9,3.1-6.1c1-2.2,2.2-5.1,3.5-8.6c-1.9-9-11.3-6.9-12.2-8.2c-0.9-1.3-1.2-2.7-1.1-4.2
		c0.1-1.7,0.6-3,1.6-3.7c1-0.7,2-2.5,3.4-2.5s2.7,0.7,4.9,1.2c3.2,0.8,8.8,3,12.2,8.1c1.3,1.6,1.9,3.8,2.5,5.7
		c2.5-0.2,5.1-0.5,7.8-1.1c2.7-0.6,4.8-1.3,6.3-2.1c0.5-0.3,1-0.7,1.7-1.1c0.7-0.4,1.3-0.8,1.9-1c0.6-0.2,1.2-0.3,1.8-0.1
		c0.5,0.2,1,0.8,1.3,1.7c0.3,0.9,0.2,1.8-0.3,2.5c-0.5,0.7-1.2,1.4-2.1,1.9c-0.9,0.5-1.9,1-2.9,1.4c-1,0.4-1.8,0.7-2.5,0.8
		c-1.6,0.6-3.5,1.1-5.6,1.5c-2.2,0.5-4.4,0.8-6.7,1.1v1.8c-0.1,2.3-0.5,4.4-1.3,6.4c-0.8,2-1.8,3.9-2.9,5.8
		c-1.2,1.8-2.5,3.6-4.1,5.2c-1.5,1.6-11.2,14.1-21.9,15.3c-0.8,0.1-4.9,0.4-10.7-6c-1.5-1.6-2.6-3.2-3.2-4.9c-0.6-1.7-1-3.7-1.1-6
		c-0.2-4.1,0.3-8.1,1.6-12c1.3-3.9,2.7-7.8,4.3-11.5c1.3-3.2,2.6-6.4,3.9-9.5c1.3-3.1,2.7-6.2,4.4-9.2c0.6-1.3,1.3-2.6,2.1-3.9
		c0.7-1.4,1.6-2.7,2.5-4.1c0.9-1.4,1.9-2.6,2.9-3.8c1-1.2,2.1-2.2,3.3-2.9c1.6-1,3.3-1.3,4.9-0.9c1.6,0.4,3,1.2,4,2.5
		c1,1.3,1.6,2.7,1.7,4.4C576.7,8.8,576.1,10.4,574.7,11.8"/>
	<path fill="#A87B53" d="M632.3,58.8c-1.4,2.1-3.1,4.3-5.1,6.4c-2,2.2-4.2,4-6.6,5.5c-2.4,1.5-4.9,2.6-7.6,3.3
		c-2.7,0.7-5.5,0.6-8.3-0.2c-3.4-0.9-6.1-2.8-8.1-5.6c-2-2.8-3.5-5.8-4.4-9c-0.8-2.9-0.9-5.8-0.5-8.8c0.5-2.9,1.3-5.7,2.4-8.4
		c1.2-2.9,2.9-5.7,5.1-8.5c2.2-2.7,4.7-4.9,7.5-6.4c3.1-1.6,6.5-2.6,10.3-2.8c3.8-0.2,7.3,0.3,10.6,1.6c3.3,1.3,5.9,3.3,8,6
		c2.1,2.7,2.9,6.3,2.5,10.6c-0.1,3-0.7,5.8-1.8,8.5C635.2,53.8,633.8,56.4,632.3,58.8 M622.4,54c1.1-2.3,2.1-4.5,3-6.8
		c0.9-2.3,1.7-4.6,2.3-7.1c0.6-2.7,0.8-4.7,0.6-6.1c-0.2-1.4-0.7-2.3-1.5-2.8c-0.8-0.4-1.8-0.5-3-0.1c-1.2,0.4-2.5,0.9-3.7,1.8
		c-1.3,0.8-2.5,1.8-3.7,3c-1.2,1.2-2.3,2.4-3.1,3.5c-2.3,3-4.3,6.3-6.1,9.8c-1.8,3.6-3,7.2-3.6,11c-0.1,0.5-0.2,1.3-0.3,2.2
		c-0.1,0.9-0.1,1.8-0.1,2.6c0.1,0.9,0.3,1.7,0.6,2.4c0.3,0.7,0.8,1.2,1.5,1.5c0.9,0.4,1.8,0.5,2.7,0.2c0.9-0.2,1.8-0.5,2.5-0.8
		c1.4-0.7,2.7-1.6,3.9-2.6c1.2-1.1,2.2-2.2,3.2-3.5c0.9-1.3,1.8-2.6,2.6-4.1C620.9,56.7,621.7,55.3,622.4,54"/>
	<rect x="135.5" y="24.3" fill="#231F20" width="8.4" height="50.8"/>
	<polygon fill="#231F20" points="156.6,24.3 164.3,24.3 189.9,59.4 189.9,24.3 198.1,24.3 198.1,75.1 191.1,75.1 164.8,38.9 
		164.8,75.1 156.6,75.1 	"/>
	<polygon fill="#231F20" points="210.4,24.3 245.8,24.3 245.8,32.4 218.7,32.4 218.7,46.3 242.8,46.3 242.8,54.4 218.7,54.4 
		218.7,75.1 210.4,75.1 	"/>
	<path fill="#231F20" d="M252.5,49.8v-0.1c0-14.3,10.4-26.3,25-26.3c14.6,0,24.9,11.8,24.9,26.1v0.1c0,14.3-10.4,26.3-25,26.3
		S252.5,64.1,252.5,49.8 M293.6,49.8v-0.1c0-9.9-6.7-18.1-16.2-18.1s-16.1,8.1-16.1,17.9v0.1c0,9.9,6.7,18,16.2,18
		S293.6,59.7,293.6,49.8"/>
	<path fill="#231F20" d="M312.5,24.3h21.2c6,0,10.7,1.9,13.8,5.1c2.5,2.8,3.9,6.5,3.9,11v0.1c0,8.3-4.7,13.4-11.3,15.4L353,75.1
		h-9.9l-11.7-17.7h-10.5v17.7h-8.4V24.3z M333.1,49.5c6,0,9.8-3.3,9.8-8.5v-0.1c0-5.4-3.7-8.4-9.9-8.4h-12.2v17.1H333.1z"/>
	<polygon fill="#231F20" points="361.7,24.3 370.7,24.3 385.2,48.3 399.7,24.3 408.6,24.3 408.6,75.1 400.2,75.1 400.2,38.6 
		385.2,62.6 384.9,62.6 370,38.8 370,75.1 361.7,75.1 	"/>
	<path fill="#231F20" d="M437.7,23.9h7.8l21,51.2h-8.9l-4.8-12.3h-22.5l-4.9,12.3h-8.6L437.7,23.9z M449.7,54.9l-8.2-20.3l-8.2,20.3
		H449.7z"/>
	<path fill="#231F20" d="M114,57c0,31.5-25.5,57-57,57C25.5,114,0,88.5,0,57S25.5,0,57,0C88.5,0,114,25.5,114,57"/>
	<path fill="#FFFFFF" d="M97.4,41.8c-1-1-2.5-1-3.5,0L72.3,63.4L41.9,76.8l-4.7-4.7l13.4-30.4l21.6-21.6c1-1,1-2.5,0-3.5
		c-1-1-2.5-1-3.5,0L46.4,38.9L23.9,90.1l51.3-22.6l22.2-22.3C98.3,44.3,98.3,42.8,97.4,41.8"/>
	<path fill="#FFFFFF" d="M62.7,59.7c0.5,0.5,1.1,0.7,1.8,0.7s1.3-0.2,1.8-0.7L89,36.9c1-1,1-2.5,0-3.5c-1-1-2.5-1-3.5,0L62.7,56.2
		C61.8,57.2,61.8,58.8,62.7,59.7"/>
	<path fill="#FFFFFF" d="M54.3,51.2c0.5,0.5,1.1,0.7,1.8,0.7c0.6,0,1.3-0.2,1.8-0.7l22.8-22.8c1-1,1-2.5,0-3.5c-1-1-2.5-1-3.5,0
		L54.3,47.7C53.3,48.7,53.3,50.3,54.3,51.2"/>
</g>
</svg>
